<svg xmlns="http://www.w3.org/2000/svg" xmlns:xlink="http://www.w3.org/1999/xlink" width="149" height="50" viewBox="0 0 149 50"><defs><path id="13kja" d="M65 35a25 25 0 1 1-50 0 25 25 0 0 1 50 0z"/><path id="13kjb" d="M149.55 34.34h8.8c.88 0 1.47-.09 1.76-.26.3-.2.44-.62.44-1.23 0-1.47-.53-2.76-1.59-3.88a5.09 5.09 0 0 0-3.91-1.67 5.41 5.41 0 0 0-5.5 5.37zm-2.86 3.61v-4.93c0-2.2.82-4.09 2.46-5.67a8.17 8.17 0 0 1 5.94-2.42 8.1 8.1 0 0 1 5.77 2.28 7.48 7.48 0 0 1 2.46 5.72c0 .83-.1 1.49-.3 1.98-.18.5-.5.85-.93 1.06a4.1 4.1 0 0 1-1.15.4c-.35.06-.83.08-1.45.08h-9.94v1.63c0 1.73.61 3.13 1.85 4.18a7.42 7.42 0 0 0 4.84 1.54c1 0 1.86-.14 2.6-.44.76-.3 1.33-.58 1.7-.88.42-.3.74-.44.98-.44.32 0 .6.16.83.49.27.29.4.58.4.88 0 .61-.63 1.26-1.9 1.93-1.25.65-2.82.97-4.7.97-2.79 0-5.06-.76-6.82-2.29a7.72 7.72 0 0 1-2.64-6.07zm-11.97 1.58V16.35c0-.3.14-.55.44-.75a1.72 1.72 0 0 1 1.98 0c.29.2.44.45.44.75v8.84h5.67c.3 0 .53.12.7.35.21.24.32.51.32.84 0 .32-.1.6-.31.83a.83.83 0 0 1-.7.36h-5.68v11.96c0 1.44.29 2.45.88 3.04.61.56 1.68.84 3.2.84h1.24c.38 0 .69.13.93.4.26.23.4.52.4.87s-.14.66-.4.93c-.24.26-.55.4-.93.4h-1.23c-4.64 0-6.95-2.16-6.95-6.48zm-18.47-1.58c0 1.5.52 2.83 1.58 4a5.16 5.16 0 0 0 3.87 1.72 5.2 5.2 0 0 0 3.92-1.72 5.74 5.74 0 0 0 1.63-4v-4.8c0-1.43-.56-2.72-1.68-3.87a5.16 5.16 0 0 0-3.87-1.71c-1.5 0-2.78.57-3.87 1.71a5.56 5.56 0 0 0-1.58 3.87zm-2.86 0v-4.8a7.8 7.8 0 0 1 2.46-5.76 8 8 0 0 1 5.85-2.46c2.26 0 4.23.8 5.9 2.42a7.79 7.79 0 0 1 2.5 5.8v4.8c0 2.2-.84 4.15-2.54 5.85a8.02 8.02 0 0 1-11.67 0 8.12 8.12 0 0 1-2.5-5.85zm-33.5 6.9v-18.6c0-.3.13-.55.4-.75.26-.2.6-.31 1-.31.39 0 .71.1.98.3.26.21.4.46.4.76v2.02a6.56 6.56 0 0 1 5.85-3.34c1.4 0 2.67.4 3.78 1.23a6.96 6.96 0 0 1 2.46 3.16 7.89 7.89 0 0 1 2.9-3.25 7.03 7.03 0 0 1 8.98 1.1c1.47 1.5 2.2 3.49 2.2 5.98v11.7c0 .3-.14.56-.44.79-.26.24-.6.35-1 .35-.39 0-.73-.11-1.02-.35-.26-.23-.4-.5-.4-.8V33.16c0-1.73-.51-3.1-1.54-4.09-1-1-2.15-1.5-3.47-1.5-1.35 0-2.55.52-3.61 1.54a5.15 5.15 0 0 0-1.54 3.87V44.9c0 .74-.48 1.1-1.45 1.1-.94 0-1.41-.36-1.41-1.1V33.02c0-1.56-.5-2.85-1.5-3.87a4.6 4.6 0 0 0-3.52-1.59c-1.38 0-2.6.52-3.65 1.54a5.38 5.38 0 0 0-1.54 4.05v11.7c0 .3-.15.56-.44.79-.28.23-.64.36-1.01.35-.38 0-.72-.11-1.01-.35-.27-.23-.4-.5-.4-.8zm-18.66-9.4a1.35 1.35 0 0 1 .66-1.23c.13-.07.29-.1.44-.1h11.44c.3 0 .54.13.75.4.23.23.35.54.35.92 0 .35-.12.65-.35.88a.96.96 0 0 1-.75.35H62.33c-.73 0-1.1-.4-1.1-1.23zm-17.6-1.1h8.8c.88 0 1.47-.1 1.76-.27.3-.2.44-.62.44-1.23 0-1.47-.53-2.76-1.58-3.88a5.09 5.09 0 0 0-3.92-1.67 5.42 5.42 0 0 0-5.5 5.37zm-2.86 3.6v-4.93c0-2.2.82-4.09 2.46-5.67a8.17 8.17 0 0 1 5.95-2.42 8.1 8.1 0 0 1 5.76 2.28 7.48 7.48 0 0 1 2.46 5.72c0 .83-.1 1.49-.3 1.98-.18.5-.49.85-.93 1.06a4.1 4.1 0 0 1-1.14.4c-.36.06-.84.08-1.46.08h-9.94v1.63c0 1.73.62 3.13 1.85 4.18a7.42 7.42 0 0 0 4.84 1.54c1 0 1.86-.14 2.6-.44.76-.3 1.33-.58 1.71-.88.41-.3.73-.44.97-.44.32 0 .6.16.84.49.26.29.4.58.4.88 0 .61-.64 1.26-1.9 1.93-1.26.65-2.83.97-4.7.97-2.8 0-5.07-.76-6.83-2.29a7.72 7.72 0 0 1-2.64-6.07zm-13 6.9v-18.6c0-.3.13-.55.4-.75.26-.2.6-.31 1-.31.39 0 .71.1.98.3.26.21.4.46.4.76v2.15a6.9 6.9 0 0 1 2.32-2.46 6.34 6.34 0 0 1 3.57-1.01h1.54c.3 0 .56.13.79.4.23.26.35.56.35.92 0 .35-.11.66-.35.92-.23.26-.5.4-.8.4h-1.53a5.5 5.5 0 0 0-4.05 1.8 6.24 6.24 0 0 0-1.76 4.62v10.86c0 .3-.15.56-.44.79-.26.24-.6.35-1.01.35-.38 0-.72-.11-1.01-.35-.27-.23-.4-.5-.4-.8z"/></defs><g><g transform="translate(-15 -10)"><use fill="#e73741" xlink:href="#13kja"/></g><g transform="translate(-15 -10)"><use fill="#1a1a1a" xlink:href="#13kjb"/></g></g></svg>