<?xml version="1.0" encoding="UTF-8"?>
<!DOCTYPE svg PUBLIC "-//W3C//DTD SVG 1.1//EN" "http://www.w3.org/Graphics/SVG/1.1/DTD/svg11.dtd">
<!-- Creator: CorelDRAW -->
<svg xmlns="http://www.w3.org/2000/svg" xml:space="preserve" width="102px" height="50px" style="shape-rendering:geometricPrecision; text-rendering:geometricPrecision; image-rendering:optimizeQuality; fill-rule:evenodd; clip-rule:evenodd"
viewBox="0 0 51.267 25.2451"
 xmlns:xlink="http://www.w3.org/1999/xlink">
 <defs>
  <style type="text/css">
   <![CDATA[
    .str0 {stroke:#201600;stroke-width:0.445525}
    .fil1 {fill:#201600}
    .fil5 {fill:#CC3333}
    .fil0 {fill:#F0F0F0}
    .fil3 {fill:#FF3946}
    .fil4 {fill:url(#id0)}
    .fil2 {fill:url(#id1)}
   ]]>
  </style>
  <linearGradient id="id0" gradientUnits="userSpaceOnUse" x1="24.9225" y1="4.05906" x2="35.5051" y2="4.05906">
   <stop offset="0" style="stop-color:#7B3946"/>
   <stop offset="0.988235" style="stop-color:#ED3946"/>
   <stop offset="1" style="stop-color:#ED3946"/>
  </linearGradient>
  <linearGradient id="id1" gradientUnits="userSpaceOnUse" x1="24.9225" y1="9.25635" x2="35.5051" y2="9.25635">
   <stop offset="0" style="stop-color:#723946"/>
   <stop offset="0.0392157" style="stop-color:#733946"/>
   <stop offset="0.6" style="stop-color:#7B3946"/>
   <stop offset="1" style="stop-color:#7B3946"/>
  </linearGradient>
 </defs>
 <g id="Layer_x0020_1">
  <metadata id="CorelCorpID_0Corel-Layer"/>
  <path class="fil0" d="M33.8114 11.863l-8.1065 1.91815 0 8.7194 8.1065 -1.73664m0 -8.90091z"/>
  <path class="fil0" d="M15.8355 11.75l8.1065 1.91815 0 8.7194 -8.1065 -1.73664m0 -8.90091z"/>
  <polygon class="fil1 str0" points="14.1716,10.1654 24.566,12.5759 24.566,11.5857 14.1716,9.11087 "/>
  <polygon class="fil2" points="24.9225,10.3947 35.5051,8.11795 24.9225,8.11795 "/>
  <polygon class="fil3" points="14.1347,7.82077 24.9225,0 24.9225,10.3947 "/>
  <path class="fil4" d="M35.5051 8.11795l-10.5827 -8.11795 0 8.11795 10.5363 0m0.0463036 0z"/>
  <g id="_252231280">
   <path id="_252232240" class="fil5" d="M5.58321 15.046l-4.07354 0 0 3.59468 4.07354 0 0 -1.22073 1.51068 0.273949 0 0.670982c0,0.513213 -0.109613,0.865625 -0.328335,1.05724 -0.229329,0.188414 -0.656165,0.283378 -1.28084,0.283378l-3.8757 0c-0.622321,0 -1.0505,-0.0949645 -1.28387,-0.283715 -0.216533,-0.193297 -0.325136,-0.545709 -0.325136,-1.05724l0 -2.98886c0,-0.510013 0.108771,-0.861584 0.325136,-1.05454 0.231687,-0.191613 0.659364,-0.287419 1.28387,-0.287419l3.8757 0.000168377c0.62451,0 1.05135,0.0958064 1.28084,0.287419 0.219227,0.191613 0.328335,0.543015 0.328335,1.05454l0 0.538974 -1.51068 0.209461 0 -1.07829z"/>
   <polygon id="_252232168" class="fil5" points="11.8335,15.046 11.8335,19.7055 10.3228,19.7055 10.3228,15.046 7.34561,15.046 7.34561,14.0342 14.8264,14.0344 14.8264,15.0462 "/>
   <path id="_252232096" class="fil5" d="M22.5598 19.7055l0 -3.06631c0,-0.1608 0.0043778,-0.295838 0.0119548,-0.404946 0.00622994,-0.0516917 0.015659,-0.131502 0.0276138,-0.238758 0.0119548,-0.107256 0.0200368,-0.193297 0.024583,-0.257448 -0.0695396,0.0712234 -0.149182,0.144804 -0.239263,0.220069 -0.0801474,0.0695396 -0.179995,0.150529 -0.301226,0.240947l-4.7649 3.50645 -1.03097 0 0 -5.67161 1.35931 0 0 2.97774c0,0.118537 -0.0043778,0.22091 -0.0119548,0.30914 -0.00808209,0.0966483 -0.0159958,0.19818 -0.023236,0.305604 -0.0072402,0.107424 -0.0170061,0.228993 -0.0289608,0.365378 0.135038,-0.132344 0.244652,-0.235728 0.32783,-0.308803 0.0860406,-0.0749277 0.22411,-0.177301 0.414712,-0.305604l4.56284 -3.34295 1.0308 0 0 5.6711 -1.35914 0z"/>
   <path id="_252232024" class="fil5" d="M25.7268 19.7055l0 -5.67161 5.54465 0c0.509677,0 0.887009,0.0850303 1.1325,0.254754 0.22714,0.173765 0.34029,0.454786 0.34029,0.844747l0 1.26384c0,0.380532 -0.113991,0.658859 -0.340795,0.834476 -0.2396,0.177301 -0.616596,0.266035 -1.1325,0.266035l-4.06108 -0.000168377 0 2.20793 -1.48306 0 0 0zm4.8804 -4.69249l-3.39734 0 0 1.50495 3.39734 0c0.264688,0 0.444683,-0.0330019 0.540826,-0.0993423 0.0917654,-0.0660037 0.138069,-0.183026 0.138069,-0.351571l0 -0.603631c0,-0.167872 -0.0463036,-0.285567 -0.138069,-0.351571 -0.0961432,-0.0653302 -0.276138,-0.0988372 -0.540826,-0.0988372z"/>
   <path id="_252231952" class="fil5" d="M34.8043 19.7055l0 -1.06515 3.70783 0 2.09966 0 0 -0.933818 -4.19932 0c-0.628214,0 -1.05185,-0.0958064 -1.27108,-0.287419 -0.225457,-0.186225 -0.338101,-0.538132 -0.338101,-1.05488l0 -2.33135 1.51068 0.000168377 0 2.69352 4.29731 -0.000168377 0 -2.69352 1.51068 0.000168377 0 4.33032c0,0.515065 -0.108266,0.867309 -0.325136,1.05724 -0.233034,0.189929 -0.661216,0.284894 -1.28303,0.284894l-2.11313 0 -1.98685 0 -1.60951 0 0 0z"/>
   <path id="_252231928" class="fil5" d="M49.7569 15.046l-4.07405 0 0 3.59468 4.07405 0 0 -1.22073 1.51017 0.273949 0 0.670982c0,0.513213 -0.109108,0.865625 -0.328335,1.05724 -0.23337,0.188414 -0.661384,0.283378 -1.28286,0.283378l-3.87098 0c-0.621984,0 -1.04916,-0.0949645 -1.28303,-0.283715 -0.218722,-0.191613 -0.328335,-0.544026 -0.328335,-1.05724l0 -2.98886c0,-0.51136 0.109613,-0.863436 0.328335,-1.05454 0.231181,-0.191613 0.658859,-0.287419 1.28303,-0.287419l3.87098 0.000168377c0.623668,0 1.05135,0.0958064 1.28253,0.287419 0.219227,0.191613 0.328335,0.543015 0.328335,1.05454l0 0.538974 -1.51017 0.209461 0 -1.07829 0.000336754 0z"/>
  </g>
  <polygon class="fil1 str0" points="25.1508,11.57 35.5452,9.15953 35.5452,10.1498 25.1508,12.6246 "/>
  <polygon class="fil1 str0" points="14.2804,22.5039 24.6748,24.9144 24.6748,23.9242 14.2804,21.4494 "/>
  <polygon class="fil1 str0" points="25.2596,23.9085 35.654,21.498 35.654,22.4882 25.2596,24.963 "/>
 </g>
</svg>
