<?xml version="1.0" encoding="utf-8"?>
<!-- Generator: Adobe Illustrator 16.0.0, SVG Export Plug-In . SVG Version: 6.00 Build 0)  -->
<!DOCTYPE svg PUBLIC "-//W3C//DTD SVG 1.1//EN" "http://www.w3.org/Graphics/SVG/1.1/DTD/svg11.dtd">
<svg version="1.1" id="Слой_1" xmlns="http://www.w3.org/2000/svg" xmlns:xlink="http://www.w3.org/1999/xlink" x="0px" y="0px"
	 width="90px" height="55px" viewBox="0 0 100 55" enable-background="new 0 0 100 55" xml:space="preserve">
<polygon fill="#FF3946" points="1,19.171 27.522,0 27.522,25.481 "/>
<path fill="none" stroke="#201600" stroke-miterlimit="10" d="M26.951,51.933"/>
<path fill="none" stroke="#201600" stroke-miterlimit="10" d="M26.951,54.604"/>
<line fill="none" stroke="#201600" stroke-miterlimit="10" x1="4.011" y1="25.81" x2="4.011" y2="47.392"/>
<polygon fill="#201600" stroke="#201600" stroke-miterlimit="10" points="1.09,49.015 26.646,54.23 26.646,30.828 26.646,28.399 
	1.09,22.333 "/>
<polyline fill="#FFFFFF" stroke="#201600" stroke-miterlimit="10" points="4.011,25.474 23.726,30.124 23.726,51.267 4.011,47.056 
	"/>
<path fill="none" stroke="#201600" stroke-miterlimit="10" d="M26.951,51.933"/>
<path fill="none" stroke="#201600" stroke-miterlimit="10" d="M26.951,54.604"/>
<polyline fill="#201600" stroke="#201600" stroke-miterlimit="10" points="30.875,51.63 30.875,30.132 53.51,24.814 53.51,22.326 
	27.955,28.394 27.955,54.24 53.51,49.021 53.51,48.845 53.51,46.412 30.875,51.276 "/>
<linearGradient id="SVGID_1_" gradientUnits="userSpaceOnUse" x1="27.5225" y1="9.9492" x2="53.541" y2="9.9492">
	<stop  offset="0" style="stop-color:#7B3946"/>
	<stop  offset="0.9929" style="stop-color:#ED3946"/>
</linearGradient>
<polyline fill="url(#SVGID_1_)" points="53.541,19.899 27.522,0 27.522,19.899 53.426,19.899 "/>
<linearGradient id="SVGID_2_" gradientUnits="userSpaceOnUse" x1="27.5225" y1="22.6899" x2="53.541" y2="22.6899">
	<stop  offset="0" style="stop-color:#723946"/>
	<stop  offset="0.0404" style="stop-color:#733946"/>
	<stop  offset="0.6036" style="stop-color:#7B3946"/>
</linearGradient>
<polygon fill="url(#SVGID_2_)" points="27.522,25.481 53.541,19.899 27.522,19.899 "/>
<g>
	<path d="M55.913,49.388V29.731H53.54v-1.639h7.119v1.639h-2.373v19.656H55.913z"/>
	<path d="M63.032,49.388V28.093h2.373V39.56l2.373-1.639v-9.828h2.373v21.295h-2.373v-9.01l-2.373,1.639v7.371H63.032z"/>
	<path d="M72.524,49.388V28.093h7.119V39.56l-4.746,3.276v6.552H72.524z M77.271,38.74v-9.009h-2.373v10.646L77.271,38.74z"/>
	<path d="M82.017,49.388l2.373-1.638h2.373v-3.276l-4.746-3.276V28.093h2.373v12.285l2.373,1.639V28.093h2.373v21.295H82.017z"/>
	<path d="M91.508,49.388V28.093h7.119v4.914l-2.373,1.639v-4.914h-2.373V47.75h2.373v-3.276l2.373-1.638v6.552H91.508z"/>
</g>
<polyline fill="#201600" stroke="#201600" stroke-miterlimit="10" points="35.203,47.053 35.203,32.925 50.077,29.43 50.077,27.797 
	33.284,31.784 33.284,48.767 50.077,45.34 50.077,45.222 50.077,43.623 35.203,46.821 "/>
</svg>
