<!DOCTYPE svg PUBLIC "-//W3C//DTD SVG 1.1//EN" "http://www.w3.org/Graphics/SVG/1.1/DTD/svg11.dtd">
<!-- Creator: CorelDRAW -->
<svg xmlns="http://www.w3.org/2000/svg" xml:space="preserve" width="107px" height="50px" style="shape-rendering:geometricPrecision; text-rendering:geometricPrecision; image-rendering:optimizeQuality; fill-rule:evenodd; clip-rule:evenodd"
viewBox="0 0 734.85 346.223"
 xmlns:xlink="http://www.w3.org/1999/xlink">
 <defs>
  <style type="text/css">
   <![CDATA[
    .str0 {stroke:#201600;stroke-width:4.12471}
    .fil1 {fill:none}
    .fil6 {fill:black}
    .fil2 {fill:#201600}
    .fil0 {fill:#FF3946}
    .fil3 {fill:white}
    .fil4 {fill:url(#id0)}
    .fil5 {fill:url(#id1)}
   ]]>
  </style>
  <linearGradient id="id0" gradientUnits="userSpaceOnUse" x1="169.553" y1="63.0452" x2="334.427" y2="63.0452">
   <stop offset="0" style="stop-color:#7B3946"/>
   <stop offset="0.988235" style="stop-color:#ED3946"/>
   <stop offset="1" style="stop-color:#ED3946"/>
  </linearGradient>
  <linearGradient id="id1" gradientUnits="userSpaceOnUse" x1="169.553" y1="143.776" x2="334.427" y2="143.776">
   <stop offset="0" style="stop-color:#723946"/>
   <stop offset="0.0392157" style="stop-color:#733946"/>
   <stop offset="0.6" style="stop-color:#7B3946"/>
   <stop offset="1" style="stop-color:#7B3946"/>
  </linearGradient>
 </defs>
 <g id="Layer_x0020_1">
  <metadata id="CorelCorpID_0Corel-Layer"/>
  <polygon class="fil0" points="1.49328,121.479 169.553,0 169.553,161.461 "/>
  <line class="fil1 str0" x1="20.5733" y1="163.547" x2="20.5733" y2= "300.304" />
  <polygon class="fil2 str0" points="2.06322,310.589 164.001,343.633 164.001,195.344 164.001,179.952 2.06322,141.514 "/>
  <path class="fil3 str0" d="M20.5733 161.418l124.926 29.4637 0 133.974 -124.926 -26.6816m0 -136.756z"/>
  <path class="fil2 str0" d="M190.8 327.158l0 -136.226 143.429 -33.6976 0 -15.7661 -161.934 38.4529 0 163.776 161.934 -33.0722 0 -1.1139 0 -15.4196 -143.429 30.8236m0 2.24339z"/>
  <path class="fil4" d="M334.427 126.09l-164.874 -126.09 0 126.09 164.145 0m0.729317 0z"/>
  <polygon class="fil5" points="169.553,161.461 334.427,126.09 169.553,126.09 "/>
  <g id="_263013528">
   <polygon id="_263013720" class="fil6" points="369.582,316.352 369.582,151.279 349.293,151.279 349.293,137.515 410.169,137.515 410.169,151.279 389.876,151.279 389.876,316.345 369.582,316.342 "/>
   <polygon id="_263013624" class="fil6" points="430.46,316.352 430.46,137.522 450.753,137.522 450.753,233.82 471.047,220.055 471.047,137.522 491.341,137.522 491.341,316.352 471.047,316.352 471.047,240.689 450.753,254.454 450.753,316.352 "/>
   <path id="_263012136" class="fil6" d="M511.631 316.352l0 -178.83 60.8781 0 0 96.2976 -40.5836 27.5096 0 55.0227 -20.2944 0zm40.594 -89.4202l0 -75.6567 -20.2927 0.00346469 0 89.4028 20.2927 -13.7496z"/>
   <polygon id="_263013672" class="fil6" points="592.808,316.352 613.103,302.599 633.395,302.596 633.395,275.084 592.812,247.573 592.808,137.522 613.103,137.522 613.103,240.689 633.395,254.454 633.395,137.522 653.69,137.522 653.69,316.352 "/>
   <polygon id="_263026320" class="fil6" points="673.972,316.352 673.972,137.522 734.85,137.522 734.85,178.787 714.556,192.552 714.556,151.287 694.267,151.287 694.267,302.596 714.556,302.596 714.556,275.084 734.85,261.329 734.85,316.352 "/>
  </g>
  <path class="fil2 str0" d="M218.227 298.156l0 -89.5258 94.2482 -22.1446 0 -10.349 -106.409 25.2645 0 107.615 106.409 -21.7149 0 -0.746641 0 -10.1342 -94.2482 20.265m0 1.47076z"/>
 </g>
</svg>
