<?xml version="1.0" encoding="UTF-8"?>
<!DOCTYPE svg PUBLIC "-//W3C//DTD SVG 1.1//EN" "http://www.w3.org/Graphics/SVG/1.1/DTD/svg11.dtd">
<!-- Creator: CorelDRAW -->
<svg xmlns="http://www.w3.org/2000/svg" xml:space="preserve" width="2480px" height="3508px" style="shape-rendering:geometricPrecision; text-rendering:geometricPrecision; image-rendering:optimizeQuality; fill-rule:evenodd; clip-rule:evenodd"
viewBox="0 0 2480 3507.43"
 xmlns:xlink="http://www.w3.org/1999/xlink"
 version="1.1"
 enable-background="new 0 0 166.65 50">
 <defs>
  <style type="text/css">
   <![CDATA[
    .str0 {stroke:#201600;stroke-width:3.1248}
    .fil1 {fill:none}
    .fil2 {fill:#201600}
    .fil6 {fill:#CC3333}
    .fil0 {fill:#FF3946}
    .fil3 {fill:white}
    .fil4 {fill:url(#id0)}
    .fil5 {fill:url(#id1)}
   ]]>
  </style>
  <linearGradient id="id0" gradientUnits="userSpaceOnUse" x1="1057.1" y1="1704.07" x2="1131.32" y2="1704.07">
   <stop offset="0" style="stop-color:#7B3946"/>
   <stop offset="0.988235" style="stop-color:#ED3946"/>
   <stop offset="1" style="stop-color:#ED3946"/>
  </linearGradient>
  <linearGradient id="id1" gradientUnits="userSpaceOnUse" x1="1057.1" y1="1740.52" x2="1131.32" y2="1740.52">
   <stop offset="0" style="stop-color:#723946"/>
   <stop offset="0.0392157" style="stop-color:#733946"/>
   <stop offset="0.6" style="stop-color:#7B3946"/>
   <stop offset="1" style="stop-color:#7B3946"/>
  </linearGradient>
 </defs>
 <g id="Layer_x0020_1">
  <metadata id="CorelCorpID_0Corel-Layer"/>
  <polygon class="fil0" points="981.436,1730.45 1057.1,1675.6 1057.1,1748.51 "/>
  <line class="fil1 str0" x1="990.025" y1="1749.45" x2="990.025" y2= "1811.2" />
  <polygon class="fil2 str0" points="981.695,1815.83 1054.6,1830.76 1054.6,1763.8 1054.6,1756.86 981.695,1739.5 "/>
  <path class="fil3 str0" d="M990.025 1748.48l56.2429 13.3082 0 60.4955 -56.2429 -12.0493m0 -61.7544z"/>
  <path class="fil2 str0" d="M1066.67 1823.32l0 -61.5075 64.5733 -15.2201 0 -7.11406 -72.9061 17.36 0 73.9465 72.9061 -14.9261 0 -0.506629 0 -6.96171 -64.5733 13.9175m0 1.01208z"/>
  <path class="fil4" d="M1131.32 1732.54l-74.224 -56.9373 0 56.9373 73.8993 0m0.324762 0z"/>
  <polygon class="fil5" points="1057.1,1748.51 1131.32,1732.54 1057.1,1732.54 "/>
  <g id="_276737080">
   <path id="_276738616" class="fil6" d="M1179.95 1739.78l-28.5708 0 0 25.2122 28.5708 0 0 -8.5619 10.5955 1.92141 0 4.7061c0,3.59954 -0.7688,6.07128 -2.30286,7.4152 -1.60846,1.32149 -4.60217,1.98754 -8.9835,1.98754l-27.1832 0c-4.3648,0 -7.36796,-0.666057 -9.00476,-1.9899 -1.5187,-1.35573 -2.28042,-3.82747 -2.28042,-7.4152l0 -20.9631c0,-3.5771 0.762895,-6.04293 2.28042,-7.3963 1.62499,-1.34392 4.62461,-2.01589 9.00476,-2.01589l27.1832 0.00118095c4.38015,0 7.37387,0.671962 8.9835,2.01589 1.5376,1.34392 2.30286,3.80857 2.30286,7.3963l0 3.78023 -10.5955 1.4691 0 -7.56282z"/>
   <polygon id="_276738472" class="fil6" points="1223.78,1739.78 1223.78,1772.46 1213.19,1772.46 1213.19,1739.78 1192.31,1739.78 1192.31,1732.69 1244.77,1732.69 1244.77,1739.78 "/>
   <path id="_276738760" class="fil6" d="M1299.01 1772.46l0 -21.5063c0,-1.12781 0.0307048,-2.07493 0.0838476,-2.84019 0.0436952,-0.362552 0.109829,-0.922324 0.193676,-1.67459 0.0838476,-0.752267 0.140533,-1.35573 0.172419,-1.80568 -0.487733,0.499543 -1.04632,1.01562 -1.67813,1.5435 -0.562133,0.487733 -1.26244,1.05577 -2.11272,1.68994l-33.4198 24.5933 -7.23097 0 0 -39.7792 9.53383 0 0 20.8851c0,0.83139 -0.0307048,1.54941 -0.0838476,2.16823 -0.0566857,0.677867 -0.11219,1.38998 -0.162971,2.14343 -0.050781,0.753448 -0.119276,1.6061 -0.203124,2.56267 0.947124,-0.928229 1.71592,-1.65333 2.29931,-2.16587 0.603467,-0.525524 1.57185,-1.24354 2.90869,-2.14343l32.0026 -23.4466 7.22979 0 0 39.7757 -9.53265 0z"/>
   <path id="_276739048" class="fil6" d="M1321.23 1772.46l0 -39.7792 38.8888 0c3.57474,0 6.22126,0.596381 7.94309,1.78678 1.5931,1.21874 2.3867,3.18975 2.3867,5.92484l0 8.86423c0,2.66895 -0.799505,4.62107 -2.39025,5.8528 -1.6805,1.24354 -4.32465,1.8659 -7.94309,1.8659l-28.4834 -0.00118095 0 15.4858 -10.4018 0 0 0zm34.2299 -32.912l-23.8281 0 0 10.5554 23.8281 0c1.85646,0 3.1189,-0.231467 3.79322,-0.696762 0.643619,-0.462933 0.968381,-1.2837 0.968381,-2.46583l0 -4.23371c0,-1.17741 -0.324762,-2.0029 -0.968381,-2.46583 -0.674324,-0.45821 -1.93676,-0.693219 -3.79322,-0.693219z"/>
   <path id="_276739240" class="fil6" d="M1384.89 1772.46l0 -7.4707 26.0058 0 14.7265 0 0 -6.54956 -29.453 0c-4.40613,0 -7.37741,-0.671962 -8.91501,-2.01589 -1.5813,-1.30613 -2.37135,-3.77432 -2.37135,-7.39867l0 -16.3515 10.5955 0.00118095 0 18.8917 30.1403 -0.00118095 0 -18.8917 10.5955 0.00118095 0 30.3717c0,3.61253 -0.759352,6.08309 -2.28042,7.4152 -1.63444,1.33211 -4.6376,1.99817 -8.99886,1.99817l-14.821 0 -13.9352 0 -11.2887 0 0 0z"/>
   <path id="_276739432" class="fil6" d="M1489.77 1739.78l-28.5743 0 0 25.2122 28.5743 0 0 -8.5619 10.592 1.92141 0 4.7061c0,3.59954 -0.765257,6.07128 -2.30286,7.4152 -1.6368,1.32149 -4.63878,1.98754 -8.99768,1.98754l-27.1501 0c-4.36244,0 -7.35851,-0.666057 -8.99886,-1.9899 -1.53406,-1.34392 -2.30286,-3.81566 -2.30286,-7.4152l0 -20.9631c0,-3.58655 0.7688,-6.05592 2.30286,-7.3963 1.62145,-1.34392 4.62107,-2.01589 8.99886,-2.01589l27.1501 0.00118095c4.37425,0 7.37387,0.671962 8.99531,2.01589 1.5376,1.34392 2.30286,3.80857 2.30286,7.3963l0 3.78023 -10.592 1.4691 0 -7.56282 0.0023619 0z"/>
  </g>
 </g>
</svg>
