<svg version="1.1" id="Слой_1" xmlns="http://www.w3.org/2000/svg" xmlns:xlink="http://www.w3.org/1999/xlink" x="0px" y="0px"
	 width="147px" height="50px" viewBox="0 0 218.784 75.002" enable-background="new 0 0 218.784 75.002"
	 xml:space="preserve">
<polygon fill="#FF3946" points="0,26.333 36.324,0 36.324,35 "/>
<path fill="none" stroke="#201600" stroke-miterlimit="10" d="M35.541,71.334"/>
<path fill="none" stroke="#201600" stroke-miterlimit="10" d="M35.933,75"/>
<line fill="none" stroke="#201600" stroke-miterlimit="10" x1="4.124" y1="35.452" x2="4.124" y2="65.098"/>
<polygon fill="#201600" stroke="#201600" stroke-miterlimit="10" points="0.124,67.324 35.124,74.49 35.124,42.343 35.124,39.009 
	0.124,30.677 "/>
<polyline fill="#FFFFFF" stroke="#201600" stroke-miterlimit="10" points="4.124,34.989 31.124,41.378 31.124,70.42 4.124,64.635 
	"/>
<path fill="none" stroke="#201600" stroke-miterlimit="10" d="M35.541,71.334"/>
<path fill="none" stroke="#201600" stroke-miterlimit="10" d="M35.933,75.002"/>
<polyline fill="#201600" stroke="#201600" stroke-miterlimit="10" points="40.916,70.918 40.916,41.388 71.916,34.083 
	71.916,30.667 36.916,39 36.916,74.502 71.916,67.334 71.916,67.092 71.916,63.75 40.916,70.432 "/>
<linearGradient id="SVGID_1_" gradientUnits="userSpaceOnUse" x1="36.3242" y1="13.6665" x2="71.957" y2="13.6665">
	<stop  offset="0" style="stop-color:#7B3946"/>
	<stop  offset="0.9929" style="stop-color:#ED3946"/>
</linearGradient>
<polyline fill="url(#SVGID_1_)" points="71.957,27.333 36.324,0 36.324,27.333 71.801,27.333 "/>
<linearGradient id="SVGID_2_" gradientUnits="userSpaceOnUse" x1="36.3242" y1="31.1665" x2="71.957" y2="31.1665">
	<stop  offset="0" style="stop-color:#723946"/>
	<stop  offset="0.0404" style="stop-color:#733946"/>
	<stop  offset="0.6036" style="stop-color:#7B3946"/>
</linearGradient>
<polygon fill="url(#SVGID_2_)" points="36.324,35 71.957,27.333 36.324,27.333 "/>
<g>
	<path fill="#CC3333" d="M64.961,45.812H51.245v12.104h13.716v-4.11l5.086,0.921v2.259c0,1.729-0.369,2.915-1.106,3.56
		c-0.772,0.638-2.21,0.957-4.312,0.957h-13.05c-2.096,0-3.537-0.319-4.323-0.957c-0.729-0.65-1.096-1.837-1.096-3.56V46.923
		c0-1.717,0.366-2.9,1.096-3.551c0.779-0.645,2.221-0.967,4.323-0.967h13.05c2.103,0,3.54,0.322,4.312,0.967
		c0.737,0.645,1.106,1.828,1.106,3.551v1.815l-5.086,0.704V45.812z"/>
	<path fill="#CC3333" d="M86.006,45.812v15.69H80.92v-15.69H70.895v-3.406h25.189v3.406H86.006z"/>
	<path fill="#CC3333" d="M122.121,61.502V51.177c0-0.542,0.015-0.996,0.042-1.364c0.021-0.174,0.052-0.442,0.093-0.804
		s0.069-0.65,0.083-0.867c-0.234,0.241-0.503,0.488-0.806,0.741c-0.269,0.234-0.606,0.506-1.013,0.812l-16.046,11.807h-3.472V42.405
		h4.577v10.027c0,0.397-0.014,0.744-0.041,1.039c-0.027,0.325-0.054,0.668-0.078,1.029c-0.023,0.361-0.056,0.771-0.098,1.229
		c0.454-0.445,0.823-0.792,1.105-1.038c0.289-0.254,0.754-0.597,1.396-1.03l15.363-11.256h3.472v19.097H122.121z"/>
	<path fill="#CC3333" d="M132.786,61.502V42.405h18.67c1.716,0,2.987,0.287,3.814,0.858c0.763,0.585,1.145,1.532,1.145,2.846v4.255
		c0,1.282-0.383,2.219-1.147,2.81c-0.807,0.596-2.077,0.894-3.814,0.894h-13.674v7.435H132.786z M149.22,45.703h-11.44v5.067h11.44
		c0.89,0,1.496-0.111,1.82-0.334c0.31-0.223,0.465-0.617,0.465-1.184v-2.032c0-0.566-0.155-0.961-0.465-1.184
		C150.716,45.814,150.109,45.703,149.22,45.703z"/>
	<path fill="#CC3333" d="M163.351,61.502v-3.586h12.486h7.069v-3.144h-14.14c-2.115,0-3.541-0.322-4.278-0.967
		c-0.759-0.626-1.138-1.81-1.138-3.55v-7.851h5.086v9.069h14.47v-9.069h5.086v14.58c0,1.734-0.365,2.921-1.096,3.56
		c-0.786,0.638-2.227,0.957-4.322,0.957h-7.114h-6.691H163.351z"/>
	<path fill="#CC3333" d="M213.698,45.812h-13.717v12.104h13.717v-4.11l5.084,0.921v2.259c0,1.729-0.367,2.915-1.105,3.56
		c-0.785,0.638-2.227,0.957-4.32,0.957h-13.033c-2.096,0-3.535-0.319-4.321-0.957c-0.737-0.645-1.105-1.831-1.105-3.56V46.923
		c0-1.723,0.368-2.906,1.105-3.551c0.779-0.645,2.219-0.967,4.321-0.967h13.033c2.102,0,3.541,0.322,4.32,0.967
		c0.738,0.645,1.105,1.828,1.105,3.551v1.815l-5.084,0.704V45.812z"/>
</g>
</svg>
