<svg version="1.1" id="Слой_1" xmlns="http://www.w3.org/2000/svg" xmlns:xlink="http://www.w3.org/1999/xlink" x="0px" y="0px"
	 width="167px" height="50px" viewBox="0 0 166.65 50" enable-background="new 0 0 166.65 50" xml:space="preserve">
<polygon fill="#FF3946" points="0.574,17.555 24.789,0 24.789,23.333 "/>
<path fill="none" stroke="#201600" stroke-miterlimit="10" d="M24.267,47.555"/>
<path fill="none" stroke="#201600" stroke-miterlimit="10" d="M24.529,49.998"/>
<line fill="none" stroke="#201600" stroke-miterlimit="10" x1="3.323" y1="23.634" x2="3.323" y2="43.397"/>
<polygon fill="#201600" stroke="#201600" stroke-miterlimit="10" points="0.657,44.881 23.989,49.658 23.989,28.229 23.989,26.006 
	0.657,20.451 "/>
<polyline fill="#FFFFFF" stroke="#201600" stroke-miterlimit="10" points="3.323,23.325 21.323,27.584 21.323,46.945 3.323,43.089 
	"/>
<path fill="none" stroke="#201600" stroke-miterlimit="10" d="M24.267,47.555"/>
<path fill="none" stroke="#201600" stroke-miterlimit="10" d="M24.529,50"/>
<polyline fill="#201600" stroke="#201600" stroke-miterlimit="10" points="27.851,47.277 27.851,27.592 48.517,22.721 
	48.517,20.444 25.184,26 25.184,49.666 48.517,44.889 48.517,44.727 48.517,42.499 27.851,46.953 "/>
<linearGradient id="SVGID_1_" gradientUnits="userSpaceOnUse" x1="543.3369" y1="-382.6782" x2="578.9697" y2="-382.6782" gradientTransform="matrix(0.6666 0 0 -0.6666 -337.4258 -246.0009)">
	<stop  offset="0" style="stop-color:#7B3946"/>
	<stop  offset="0.9929" style="stop-color:#ED3946"/>
</linearGradient>
<polyline fill="url(#SVGID_1_)" points="48.544,18.222 24.789,0 24.789,18.222 48.44,18.222 "/>
<linearGradient id="SVGID_2_" gradientUnits="userSpaceOnUse" x1="543.3369" y1="-400.1782" x2="578.9697" y2="-400.1782" gradientTransform="matrix(0.6666 0 0 -0.6666 -337.4258 -246.0009)">
	<stop  offset="0" style="stop-color:#723946"/>
	<stop  offset="0.0404" style="stop-color:#733946"/>
	<stop  offset="0.6036" style="stop-color:#7B3946"/>
</linearGradient>
<polygon fill="url(#SVGID_2_)" points="24.789,23.333 48.544,18.222 24.789,18.222 "/>
<g>
	<path fill="#CC3333" d="M64.105,20.541h-9.144v8.069h9.144v-2.74l3.391,0.615v1.506c0,1.152-0.246,1.943-0.737,2.373
		C66.244,30.787,65.286,31,63.884,31h-8.7c-1.397,0-2.358-0.213-2.882-0.637c-0.486-0.434-0.73-1.225-0.73-2.373v-6.709
		c0-1.145,0.244-1.934,0.73-2.367c0.52-0.43,1.48-0.645,2.882-0.645h8.7c1.402,0,2.36,0.215,2.875,0.645
		c0.492,0.43,0.737,1.219,0.737,2.367v1.21l-3.391,0.47V20.541z"/>
	<path fill="#CC3333" d="M78.135,20.541V31h-3.391V20.541h-6.683v-2.271h16.792v2.271H78.135z"/>
	<path fill="#CC3333" d="M102.212,31v-6.883c0-0.361,0.01-0.664,0.027-0.909c0.014-0.116,0.035-0.295,0.062-0.536
		s0.045-0.434,0.055-0.578c-0.156,0.16-0.335,0.325-0.537,0.494c-0.18,0.156-0.404,0.338-0.676,0.541L90.447,31h-2.314V18.269h3.051
		v6.684c0,0.266-0.01,0.496-0.027,0.694c-0.018,0.217-0.036,0.445-0.052,0.686s-0.038,0.514-0.065,0.82
		c0.303-0.297,0.549-0.529,0.736-0.693c0.193-0.168,0.503-0.398,0.931-0.686l10.242-7.504h2.314V31H102.212z"/>
	<path fill="#CC3333" d="M109.321,31V18.269h12.446c1.144,0,1.991,0.191,2.542,0.572c0.51,0.39,0.764,1.021,0.764,1.896v2.837
		c0,0.854-0.256,1.479-0.765,1.873c-0.538,0.398-1.384,0.597-2.542,0.597h-9.116V31H109.321L109.321,31z M120.276,20.467h-7.626
		v3.378h7.626c0.594,0,0.998-0.074,1.214-0.223c0.206-0.148,0.31-0.411,0.31-0.789v-1.355c0-0.377-0.104-0.641-0.31-0.789
		C121.274,20.542,120.87,20.467,120.276,20.467z"/>
	<path fill="#CC3333" d="M129.697,31v-2.391h8.323h4.713v-2.096h-9.426c-1.41,0-2.361-0.215-2.853-0.645
		c-0.506-0.418-0.759-1.208-0.759-2.368v-5.233h3.391v6.046h9.646v-6.046h3.391v9.72c0,1.156-0.243,1.947-0.73,2.373
		C144.87,30.787,143.909,31,142.513,31h-4.743h-4.46H129.697L129.697,31z"/>
	<path fill="#CC3333" d="M163.261,20.541h-9.145v8.069h9.145v-2.74l3.39,0.615v1.506c0,1.152-0.245,1.943-0.737,2.373
		C165.39,30.787,164.429,31,163.034,31h-8.689c-1.396,0-2.355-0.213-2.88-0.637c-0.491-0.43-0.737-1.221-0.737-2.373v-6.709
		c0-1.148,0.246-1.938,0.737-2.367c0.519-0.43,1.479-0.645,2.88-0.645h8.689c1.4,0,2.36,0.215,2.879,0.645
		c0.492,0.43,0.737,1.219,0.737,2.367v1.21l-3.39,0.47V20.541z"/>
</g>
</svg>
