<svg xmlns="http://www.w3.org/2000/svg" xmlns:xlink="http://www.w3.org/1999/xlink" width="11" height="20" viewBox="0 0 11 20"><defs><path id="5d83a" d="M1271.4 2774h-2.59c-2.91 0-4.8 1.93-4.8 4.92v2.27h-2.6a.4.4 0 0 0-.41.4v3.3c0 .22.18.4.4.4h2.62v8.3c0 .23.18.41.4.41h3.4a.4.4 0 0 0 .41-.4v-8.3h3.05a.4.4 0 0 0 .41-.41v-3.3a.4.4 0 0 0-.4-.4h-3.06v-1.92c0-.93.22-1.4 1.43-1.4h1.75a.4.4 0 0 0 .4-.4v-3.06a.4.4 0 0 0-.4-.4z"/></defs><g><g transform="translate(-1261 -2774)"><use fill="#fff" xlink:href="#5d83a"/></g></g></svg>