<svg xmlns="http://www.w3.org/2000/svg" xmlns:xlink="http://www.w3.org/1999/xlink" width="20" height="17" viewBox="0 0 20 17"><defs><path id="ce7ka" d="M1336 2777.92a8.2 8.2 0 0 1-2.36.65c.85-.5 1.5-1.31 1.8-2.27-.79.47-1.66.81-2.6 1a4.1 4.1 0 0 0-7.1 2.8c0 .32.04.64.1.94-3.4-.17-6.42-1.8-8.45-4.29a4.1 4.1 0 0 0 1.27 5.48 4.1 4.1 0 0 1-1.86-.52v.05a4.1 4.1 0 0 0 3.3 4.03 4.16 4.16 0 0 1-1.86.06 4.1 4.1 0 0 0 3.83 2.85 8.23 8.23 0 0 1-6.07 1.7 11.6 11.6 0 0 0 6.29 1.85c7.55 0 11.67-6.26 11.67-11.68l-.01-.53a8.2 8.2 0 0 0 2.05-2.12z"/></defs><g><g transform="translate(-1316 -2776)"><use fill="#fff" xlink:href="#ce7ka"/></g></g></svg>